<svg height="1024" width="1024" xmlns="http://www.w3.org/2000/svg"><defs><clipPath id="a"><path d="M0 0h1024v1024H0Z"/></clipPath></defs><g clip-path="url(#a)"><path d="M517.96 22.79c205.13 0 372.96 167.83 372.96 372.96V1001H145V395.76C145 190.63 312.83 22.8 517.96 22.8Z" fill="#d2d3d5" fill-rule="evenodd"/><path d="M517.96 22.79h0c205.13 0 372.96 167.83 372.96 372.96V1001H145V395.76C145 190.63 312.83 22.8 517.96 22.8Z" fill="none" stroke="#373435" stroke-linecap="round" stroke-width="1.42"/><path d="m364.79 451.28 77.04 71.5-120.74 478.23H145V538.87l219.79-87.59Z" fill="#fefefe" fill-rule="evenodd"/><path d="m364.79 451.28 77.04 71.5-120.74 478.23H145V538.87l219.79-87.59Z" fill="none" stroke="#373435" stroke-linecap="round" stroke-width="1.42"/><path d="M555.48 298.67c.11.07 13.51 3.55 24.66 21.04.72 1.12-2.07 3.32-2.89 4.21L450.29 465.48l7.04 38.44-15.5 18.86-77.04-71.5 15.77-16.8 42.46 8.48 132.45-144.29Z" fill="#373435" fill-rule="evenodd"/><path d="M555.48 298.67c.11.07 13.51 3.55 24.66 21.04.72 1.12-2.07 3.32-2.89 4.21L450.29 465.48l7.04 38.44-15.5 18.86-77.04-71.5 15.77-16.8 42.46 8.48 132.45-144.29ZM89.69 1001.01h855.47" fill="none" stroke="#373435" stroke-linecap="round" stroke-width="1.42"/><path d="M858.31 875.56c.63 1.79-74.17 60.32-75.06 60.32-.17-.05-42.87-31.68-68.9-51.5-38.71-29.49-46.92-54.5-54.49-78.38-.32-1.02-68.71 118.06-68.9 117.6l-82.05-42.24 88.44-258.73 141.72-9.68 46.5 186.94 72.76 75.68Z" fill="#fefefe" fill-rule="evenodd"/><path d="M858.31 875.56c.63 1.79-74.17 60.32-75.06 60.32-.17-.05-42.87-31.68-68.9-51.5-38.71-29.49-46.92-54.5-54.49-78.38-.32-1.02-68.71 118.06-68.9 117.6l-82.05-42.24 88.44-258.73 141.72-9.68 46.5 186.94 72.76 75.68Z" fill="none" stroke="#373435" stroke-linecap="round" stroke-width="1.42"/><path d="M838.89 855.8c3.07 1.82 74.43 69.7 74.43 69.7s-79.71 68.43-88.97 74.57c0 0-72.65.65-72.65.43-.13-28.6 26.24-37.21 30.89-40.07 0 0-8.05-22.24-11.89-34.59l68.19-70.04Z" fill="#d2d3d5" fill-rule="evenodd"/><path d="M838.89 855.8c3.07 1.82 74.43 69.7 74.43 69.7s-79.71 68.43-88.97 74.57c0 0-72.65.65-72.65.43-.13-28.6 26.24-37.21 30.89-40.07 0 0-8.05-22.24-11.89-34.59l68.19-70.04Z" fill="none" stroke="#373435" stroke-linecap="round" stroke-width="1.42"/><path d="M593.3 921.25c-.93 3.06-37.64 78.14-37.64 78.14s-163.92-84.73-163.59-85.14c30.57-38.06 71.19-5.04 119.18-35.24l82.05 42.24Z" fill="#d2d3d5" fill-rule="evenodd"/><path d="M593.3 921.25c-.93 3.06-37.64 78.14-37.64 78.14s-163.92-84.73-163.59-85.14c30.57-38.06 71.19-5.04 119.18-35.24l82.05 42.24Zm72.09-99.13-31.98-93.05m149.17 231.36c11.24-1.55 13.13-1.57 23.99-1.57" fill="none" stroke="#373435" stroke-linecap="round" stroke-width="1.42"/><path d="m669.94 389.56 52.73-.53 1.78-43.79 1.92-78.51c1.43-24.31-23.85-40.22-44.66-22.26-6.06 5.23-21.95 29.6-27.61 37.6-11.5 16.27-23.63 34.41-16.9 45.89 3.9 6.64 15.44 13.26 36.14 9.06l-3.4 52.54Z" fill="#fefefe" fill-rule="evenodd"/><path d="m669.94 389.56 52.73-.53 1.78-43.79 1.92-78.51c1.43-24.31-23.85-40.22-44.66-22.26-6.06 5.23-21.95 29.6-27.61 37.6-11.5 16.27-23.63 34.41-16.9 45.89 3.9 6.64 15.44 13.26 36.14 9.06l-3.4 52.54Z" fill="none" stroke="#373435" stroke-linecap="round" stroke-width="1.42"/><path d="M663.51 304.05c5.22 2.74 18.16 10.34 25.89-4.07" fill="none" stroke="#373435" stroke-linecap="round" stroke-width="1.42"/><path d="M726.23 387.06c.5 2.48 13.49 212.75 15.68 239.25.03.38-145.64.79-145.64.79 1.12-3.44 48.36-202.4 54.18-223.13.82-2.92 5.07-16.6 17.91-16.82 8.75-.15 57.87-.1 57.87-.1Z" fill="#373435" fill-rule="evenodd"/><path d="M726.23 387.06c.5 2.48 13.49 212.75 15.68 239.25.03.38-145.64.79-145.64.79 1.12-3.44 48.36-202.4 54.18-223.13.82-2.92 5.07-16.6 17.91-16.82 8.75-.15 57.87-.1 57.87-.1Z" fill="none" stroke="#373435" stroke-linecap="round" stroke-width="1.42"/><path d="m478.65 456.73 126.12-54.64c-7.02-16.37-9.49-24.52-4.79-62.15 1.53-12.22 3.5-42.96-21.76-45.67-2.96-.32-9.93 1.52-9.93 1.52-3.72-8.51-15.89-22.34-30.96-18.85-29.38 6.81-21.18 39.87-21.91 39.78-26.94-12.86-44.72 18-33.72 42.48-16.77-3.38-35.81 12.73-23.76 55.93 2.28 8.18 20.71 41.61 20.71 41.61Z" fill="#fefefe" fill-rule="evenodd"/><path d="m478.65 456.73 126.12-54.64c-7.02-16.37-9.49-24.52-4.79-62.15 1.53-12.22 3.5-42.96-21.76-45.67-2.96-.32-9.93 1.52-9.93 1.52-3.72-8.51-15.89-22.34-30.96-18.85-29.38 6.81-21.18 39.87-21.91 39.78-26.94-12.86-44.72 18-33.72 42.48-16.77-3.38-35.81 12.73-23.76 55.93 2.28 8.18 20.71 41.61 20.71 41.61Z" fill="none" stroke="#373435" stroke-linecap="round" stroke-width="1.42"/><path d="m890.1 571.88-117.37 42.21c3.81 14.1-3.79 23.79-6.7 49.06-3.93 34.06 19.95 50.6 36.88 43.7 9-3.67 9.95-2.54 13.96 6.27 11.03 24.22 46.72 16.64 41.87-12.98-1.96-11.94.14-10.31 3.32-2.35 10.68 26.71 55.69 14.55 41.81-20.06-12.77-31.82-6.76-8.48 3.32.33 17.69 15.47 48.86-7.56 27.81-38.74-3.9-5.78-44.9-67.45-44.9-67.45Z" fill="#fefefe" fill-rule="evenodd"/><path d="m890.1 571.88-117.37 42.21c3.81 14.1-3.79 23.79-6.7 49.06-3.93 34.06 19.95 50.6 36.88 43.7 9-3.67 9.95-2.54 13.96 6.27 11.03 24.22 46.72 16.64 41.87-12.98-1.96-11.94.14-10.31 3.32-2.35 10.68 26.71 55.69 14.55 41.81-20.06-12.77-31.82-6.76-8.48 3.32.33 17.69 15.47 48.86-7.56 27.81-38.74-3.9-5.78-44.9-67.45-44.9-67.45Z" fill="none" stroke="#373435" stroke-linecap="round" stroke-width="1.42"/><path d="M807.84 679.02c-4.04-33.52 30.55-42.68 41.95-13.74 2.79 7.09 6.8 18.09 7.89 25.65" fill="none" stroke="#373435" stroke-linecap="round" stroke-width="1.42"/><path d="M843.69 655.29c-2.67-18.54 30.33-34.73 44.6-8.07.44.82 12.09 21.6 12.09 21.6" fill="none" stroke="#373435" stroke-linecap="round" stroke-width="1.42"/><path d="M885.39 642.7c-4.45-17.77 16.24-33.46 32.91-23.51 3.89 2.32 10.93 11.99 14.11 16.04" fill="none" stroke="#373435" stroke-linecap="round" stroke-width="1.42"/><path d="m709.84 426.25-1.13-27.41-69.16 79.26-34.1-75.52-127.88 52.53c.15-.06 76.77 131.5 87.7 144.22 10.75 12.51 44.46 21.2 62.02-12.96 16.32-31.73 51.43-86.88 66.29-116.98 12.33-24.97 14.71-40.11 16.25-43.14Z" fill="#373435" fill-rule="evenodd"/><path d="m709.84 426.25-1.13-27.41-69.16 79.26-34.1-75.52-127.88 52.53c.15-.06 76.77 131.5 87.7 144.22 10.75 12.51 44.46 21.2 62.02-12.96 16.32-31.73 51.43-86.88 66.29-116.98 12.33-24.97 14.71-40.11 16.25-43.14Z" fill="none" stroke="#373435" stroke-linecap="round" stroke-width="1.42"/><path d="M584.68 615.57c14.06 2.64 31.4-1.94 42.41-23.35 16.32-31.74 51.43-86.88 66.29-116.98" fill="none" stroke="#d2d3d5" stroke-linecap="round" stroke-width="1.42"/><path d="m725.05 387.06 74.54 62.9c27.3 21.03 27.95 22.13 46.25 51.32l44.25 70.6-116.79 46.26-17.51-103.86-33.49-91.77 2.75-35.46Z" fill="#373435" fill-rule="evenodd"/><path d="m725.05 387.06 74.54 62.9c27.3 21.03 27.95 22.13 46.25 51.32l44.25 70.6-116.79 46.26-17.51-103.86-33.49-91.77 2.75-35.46Zm-158.54-94.62 15.75 31.91" fill="none" stroke="#373435" stroke-linecap="round" stroke-width="1.42"/><path d="m578.35 315.19 22.93-28.56-27.05-20.21-12.59 15.08 16.71 33.69Z" fill="#373435" fill-rule="evenodd"/><path d="m578.35 315.19 22.93-28.56-27.05-20.21-12.59 15.08 16.71 33.69Z" fill="none" stroke="#373435" stroke-linecap="round" stroke-width="1.42"/></g></svg>