<svg height="1024" width="1024" xmlns="http://www.w3.org/2000/svg"><defs><clipPath id="a"><path d="M0 0h1024v1024H0Z"/></clipPath></defs><g clip-path="url(#a)"><path d="M537.93 196.42h434.5v567.15h-434.5Z" fill="#373435"/><path d="M537.93 196.42h434.5v567.15h-434.5Z" fill="none" stroke="#373435" stroke-linecap="round" stroke-width="1.42"/><path d="M972.43 196.42h-434.5v-20.58c0-6.46 5.29-11.75 11.75-11.75h410.99c6.46 0 11.75 5.29 11.75 11.75v20.58Z" fill="#fefefe" fill-rule="evenodd"/><path d="M972.43 196.42h-434.5v-20.58c0-6.46 5.29-11.75 11.75-11.75h410.99c6.46 0 11.75 5.29 11.75 11.75v20.58Z" fill="none" stroke="#373435" stroke-linecap="round" stroke-width="1.42"/><path d="m373.82 399.36 9.94-86.84-96.38 42.68 86.44 44.16Z" fill="#373435" fill-rule="evenodd"/><path d="m373.82 399.36 9.94-86.84-96.38 42.68 86.44 44.16Z" fill="none" stroke="#373435" stroke-linecap="round" stroke-width="1.42"/><path d="m437.43 332.91-52.17-23.1 18.69-106.64c3.29-23.08 31.89-30.13 49.4-7 5.1 6.73 16.4 34.33 20.55 43.52 8.43 18.69 14.8 36.98 5.78 45.6-5.23 4.99-15.81 9.96-35.88-.32l-6.36 47.94Z" fill="#fefefe" fill-rule="evenodd"/><path d="m437.43 332.91-52.17-23.1 18.69-106.64c3.29-23.08 31.89-30.13 49.4-7 5.1 6.73 16.4 34.33 20.55 43.52 8.43 18.69 14.8 36.98 5.78 45.6-5.23 4.99-15.81 9.96-35.88-.32l-6.36 47.94Z" fill="none" stroke="#373435" stroke-linecap="round" stroke-width="1.42"/><path d="M460.12 257.28c-5.8.95-20.34 4.05-25.34-11.75M54.87 921.74h855.47" fill="none" stroke="#373435" stroke-linecap="round" stroke-width="1.42"/><path d="M203.99 715.71c-.87 1.79 33.14 88.04 34.03 88.04.17-.04 87.06-4.81 98.87-5.31 30.62-1.28 39.28-12.5 47.26-29.36 9.74-20.59 32.86-70.05 32.45-70.05-.75 0 22.92 50.54 26.29 70.96 5.32 32.26 11.55 74.43 11.71 74.14h91.89c-3.8-32.13-7.6-47.55-11.4-79.68-4.29-36.29-1.05-58.98-15.93-93.88l-25.74-88.88-150.35-36.27-51.8 162.46L204 715.7Z" fill="#fefefe" fill-rule="evenodd"/><path d="M203.99 715.71c-.87 1.79 33.14 88.04 34.03 88.04.17-.04 87.06-4.81 98.87-5.31 30.62-1.28 39.28-12.5 47.26-29.36 9.74-20.59 32.86-70.05 32.45-70.05-.75 0 22.92 50.54 26.29 70.96 5.32 32.26 11.55 74.43 11.71 74.14h91.89c-3.8-32.13-7.6-47.55-11.4-79.68-4.29-36.29-1.05-58.98-15.93-93.88l-25.74-88.88-150.35-36.27-51.8 162.46L204 715.7Z" fill="none" stroke="#373435" stroke-linecap="round" stroke-width="1.42"/><path d="M208.58 715.84c-3.34-.4-79.79 5.61-79.79 5.61s56.15 167.32 56.62 167.15c42.15-15.16 12.49-56.79 52.62-84.85l-29.45-87.91Z" fill="#d2d3d5" fill-rule="evenodd"/><path d="M208.58 715.84c-3.34-.4-79.79 5.61-79.79 5.61s56.15 167.32 56.62 167.15c42.15-15.16 12.49-56.79 52.62-84.85l-29.45-87.91Z" fill="none" stroke="#373435" stroke-linecap="round" stroke-width="1.42"/><path d="M454.59 844.06c-.69 3.02-5.58 77.7-5.58 77.7s180.58.23 180.5-.28c-7.28-46.04-57.42-30.27-83.02-77.35l-91.9-.08Z" fill="#d2d3d5" fill-rule="evenodd"/><path d="M454.59 844.06c-.69 3.02-5.58 77.7-5.58 77.7s180.58.23 180.5-.28c-7.28-46.04-57.42-30.27-83.02-77.35l-91.9-.08Zm-58.56-100.84 36.46-75.9" fill="none" stroke="#373435" stroke-linecap="round" stroke-width="1.42"/><path d="M384.36 309.48c-.77 2.22-37.16 213.91-42.19 238.76-.07.36 153.38 43.93 153.12 41.48-3.68-34.77-39.69-175.69-51.7-241.77-.57-3.13-3.27-17.83-16.1-22.58-8.74-3.24-43.12-15.9-43.12-15.9Z" fill="#373435" fill-rule="evenodd"/><path d="M384.36 309.48c-.77 2.22-37.16 213.91-42.19 238.76-.07.36 153.38 43.93 153.12 41.48-3.68-34.77-39.69-175.69-51.7-241.77-.57-3.13-3.27-17.83-16.1-22.58-8.74-3.24-43.12-15.9-43.12-15.9Z" fill="none" stroke="#373435" stroke-linecap="round" stroke-width="1.42"/><path d="M596.69 527.02 420.3 349.65l17.46-14.28 197.18 147.6-38.25 44.05Z" fill="#373435" fill-rule="evenodd"/><path d="M596.69 527.02 420.3 349.65l17.46-14.28 197.18 147.6-38.25 44.05Z" fill="none" stroke="#373435" stroke-linecap="round" stroke-width="1.42"/><path d="m452.92 494.23-17.75-92.58" fill="none" stroke="#fefefe" stroke-linecap="round" stroke-width="1.42"/><path d="M401.77 215.59 512 187.02" fill="none" stroke="#373435" stroke-linecap="round" stroke-width="1.42"/><path d="m192.64 618.18 92.51-295.56 295.56 92.51-92.51 295.56Z" fill="#d2d3d5"/><path d="m192.64 618.18 92.51-295.56 295.56 92.51-92.51 295.56Z" fill="none" stroke="#373435" stroke-linecap="round" stroke-width="1.42"/><path d="m354.34 669.17 92.51-295.56 295.56 92.51-92.51 295.56Z" fill="#d2d3d5"/><path d="m354.34 669.17 92.51-295.56 295.56 92.51-92.51 295.56Z" fill="none" stroke="#373435" stroke-linecap="round" stroke-width="1.42"/><path d="m488.28 386.36 27.15-86.75 194.05 60.74-27.15 86.75Z" fill="#d2d3d5"/><path d="m488.28 386.36 27.15-86.75 194.05 60.74-27.15 86.75Z" fill="none" stroke="#373435" stroke-linecap="round" stroke-width="1.42"/><path d="m594.44 419.84 27.15-86.75 194.06 60.74-27.16 86.75Z" fill="#d2d3d5"/><path d="m594.44 419.84 27.15-86.75 194.06 60.74-27.16 86.75Z" fill="none" stroke="#373435" stroke-linecap="round" stroke-width="1.42"/><path d="M261.96 400.4c.2-4.43 15.61-54.98 15.61-54.98-1.39-3.3-4.87-4.96-8.04-6.16-9.76-3.71-23.31 3.34-33.15 25.77-20.96 47.79 4.09 24.02 9.52 34.73 4.19 8.26 15.15 20.46 16.05.65Z" fill="#fefefe" fill-rule="evenodd"/><path d="M261.96 400.4c.2-4.43 15.61-54.98 15.61-54.98-1.39-3.3-4.87-4.96-8.04-6.16-9.76-3.71-23.31 3.34-33.15 25.77-20.96 47.79 4.09 24.02 9.52 34.73 4.19 8.26 15.15 20.46 16.05.65Z" fill="none" stroke="#373435" stroke-linecap="round" stroke-width="1.42"/><path d="M219.13 533.51C173.66 511.98 195 425.45 213 394.23c13.1-22.72 28.32-27.18 47.66-25.92 17.89 1.17 39.01 13.03 47.19 24.98 10.48 15.32 9.04 41.95-18.54 37.02 0 0 2.3.66 7.72 12.49 8.05 17.57-.13 42.52-22.65 36.94-1.86-.46 12.33 13.66 1.07 30.55-13.78 20.67-49.39 2.12-50.99 6.23-1.94 4.96-5.2 17.02-5.3 16.97Z" fill="#fefefe" fill-rule="evenodd"/><path d="M219.13 533.51C173.66 511.98 195 425.45 213 394.23c13.1-22.72 28.32-27.18 47.66-25.92 17.89 1.17 39.01 13.03 47.19 24.98 10.48 15.32 9.04 41.95-18.54 37.02 0 0 2.3.66 7.72 12.49 8.05 17.57-.13 42.52-22.65 36.94-1.86-.46 12.33 13.66 1.07 30.55-13.78 20.67-49.39 2.12-50.99 6.23-1.94 4.96-5.2 17.02-5.3 16.97Z" fill="none" stroke="#373435" stroke-linecap="round" stroke-width="1.42"/><path d="M292.75 435.01c-4.3-7.75-17.1-20.36-51.47-23.16m34.48 71.35c-8.25-19.09-36.34-26.49-51.21-26.85m2.34 60.6c-4.6-2.62-12-4.97-17.94-4.95" fill="none" stroke="#373435" stroke-linecap="round" stroke-width="1.42"/><path d="M720.08 533.94c2.33-3.79 18.11-54.32 18.11-54.32 3.01-1.96 6.82-1.39 10.11-.62 10.15 2.38 17.37 15.8 12.85 39.9-9.64 51.34-16.92 17.62-27.45 23.47-8.12 4.51-24.05 8.49-13.62-8.44Z" fill="#fefefe" fill-rule="evenodd"/><path d="M720.08 533.94c2.33-3.79 18.11-54.32 18.11-54.32 3.01-1.96 6.82-1.39 10.11-.62 10.15 2.38 17.37 15.8 12.85 39.9-9.64 51.34-16.92 17.62-27.45 23.47-8.12 4.51-24.05 8.49-13.62-8.44Z" fill="none" stroke="#373435" stroke-linecap="round" stroke-width="1.42"/><path d="M680.39 668.25c49.7 7.57 80.86-76.1 83.61-112.05 1.99-26.17-8.07-38.37-24.75-48.13-15.44-9.04-39.56-11.01-53.06-5.67-17.29 6.84-31.12 29.74-5.56 41.06 0 0-2.28-.74-13.42 6.04-16.55 10.07-23.87 35.33-2.12 43.3 1.8.66-17.89 4.43-18.11 24.74-.27 24.84 39.59 29.37 38.6 33.68-1.2 5.2-5.3 17.02-5.19 17.03Z" fill="#fefefe" fill-rule="evenodd"/><path d="M680.39 668.25c49.7 7.57 80.86-76.1 83.61-112.05 1.99-26.17-8.07-38.37-24.75-48.13-15.44-9.04-39.56-11.01-53.06-5.67-17.29 6.84-31.12 29.74-5.56 41.06 0 0-2.28-.74-13.42 6.04-16.55 10.07-23.87 35.33-2.12 43.3 1.8.66-17.89 4.43-18.11 24.74-.27 24.84 39.59 29.37 38.6 33.68-1.2 5.2-5.3 17.02-5.19 17.03Z" fill="none" stroke="#373435" stroke-linecap="round" stroke-width="1.42"/><path d="M675.13 545.41c7.92-4.02 25.6-7.32 55.57 9.57m-68.71 39.9c17.58-11.21 44.95-1.64 57.44 6.37m-36.11 48.92c5.28.4 12.71 2.59 17.6 5.93" fill="none" stroke="#373435" stroke-linecap="round" stroke-width="1.42"/><path d="M524.69 441.24c22.43 16.17 27.51 47.46 11.34 69.89-16.16 22.42-47.45 27.5-69.88 11.34-22.43-16.17-27.51-47.45-11.34-69.88 16.16-22.43 47.45-27.51 69.88-11.35Z" fill="#373435"/><path d="M524.69 441.24c22.43 16.17 27.51 47.46 11.34 69.89-16.16 22.42-47.45 27.5-69.88 11.34-22.43-16.17-27.51-47.45-11.34-69.88 16.16-22.43 47.45-27.51 69.88-11.35Z" fill="none" stroke="#373435" stroke-linecap="round" stroke-width="1.42"/><path d="m473.87 476.7 9.95 21.77 36.7-29.85" fill="none" stroke="#fefefe" stroke-linecap="round" stroke-width="1.42"/><path d="m657.25 329.65 50.33-68.12 152.38 112.59-50.34 68.12Z" fill="#d2d3d5"/><path d="m657.25 329.65 50.33-68.12 152.38 112.59-50.34 68.12Z" fill="none" stroke="#373435" stroke-linecap="round" stroke-width="1.42"/><path d="m740.54 391.48 50.33-68.12 152.38 112.59-50.34 68.12Z" fill="#d2d3d5"/><path d="m740.54 391.48 50.33-68.12 152.38 112.59-50.34 68.12Z" fill="none" stroke="#373435" stroke-linecap="round" stroke-width="1.42"/><path d="M560.74 174.97a5.44 5.44 0 1 1 .001 10.879 5.44 5.44 0 0 1-.001-10.879m15.24 0c-3 0-5.44 2.44-5.44 5.44 0 3 2.44 5.44 5.44 5.44 3 0 5.44-2.44 5.44-5.44 0-3-2.44-5.44-5.44-5.44m16.13 0a5.44 5.44 0 1 0-.001 10.879 5.44 5.44 0 0 0 .001-10.879" fill="#373435" fill-rule="evenodd"/></g></svg>