<svg height="1024" width="1024" xmlns="http://www.w3.org/2000/svg"><defs><clipPath id="a"><path d="M0 0h1024v1024H0Z"/></clipPath></defs><g clip-path="url(#a)"><path d="M817.81 559.19c21.98 0 39.8 28.12 39.8 62.81s-17.82 62.81-39.8 62.81c-21.98 0-39.8-28.12-39.8-62.81s17.82-62.81 39.8-62.81Z" fill="#373435" fill-rule="evenodd"/><path d="M817.81 559.19c21.98 0 39.8 28.12 39.8 62.81s-17.82 62.81-39.8 62.81c-21.98 0-39.8-28.12-39.8-62.81s17.82-62.81 39.8-62.81Z" fill="none" stroke="#373435" stroke-linecap="round" stroke-width="1.42"/><path d="m830.24 672.37-23.01-.62-18.03 108.2h63.43l-22.39-107.58Z" fill="#373435" fill-rule="evenodd"/><path d="m830.24 672.37-23.01-.62-18.03 108.2h63.43l-22.39-107.58Z" fill="none" stroke="#373435" stroke-linecap="round" stroke-width="1.42"/><path d="m334.83 240.1 265.43-114.68c66.07-28.54 143.48 2.16 172.02 68.22 28.54 66.07-2.16 143.48-68.22 172.02L438.63 480.34c-66.07 28.54-143.47-2.15-172.02-68.22-28.54-66.07 2.16-143.48 68.22-172.02Z" fill="#d2d3d5" fill-rule="evenodd"/><path d="m334.83 240.1 265.43-114.68c66.07-28.54 143.48 2.16 172.02 68.22h0c28.54 66.07-2.16 143.48-68.22 172.02L438.63 480.34c-66.07 28.54-143.47-2.15-172.02-68.22h0c-28.54-66.07 2.16-143.48 68.22-172.02Z" fill="none" stroke="#373435" stroke-linecap="round" stroke-width="1.42"/><path d="m378.32 359.97 275.55-118.99-92.63-36.76m92.63 36.76-36.23 91.31" fill="none" stroke="#373435" stroke-linecap="round" stroke-width="1.42"/><path d="m504.84 350.17-52.17-23.1 18.69-106.64c3.29-23.08 31.89-30.13 49.4-7 5.1 6.73 16.4 34.33 20.55 43.52 8.43 18.69 14.8 36.98 5.78 45.6-5.23 4.99-15.81 9.96-35.88-.32l-6.36 47.94Z" fill="#fefefe" fill-rule="evenodd"/><path d="m504.84 350.17-52.17-23.1 18.69-106.64c3.29-23.08 31.89-30.13 49.4-7 5.1 6.73 16.4 34.33 20.55 43.52 8.43 18.69 14.8 36.98 5.78 45.6-5.23 4.99-15.81 9.96-35.88-.32l-6.36 47.94Z" fill="none" stroke="#373435" stroke-linecap="round" stroke-width="1.42"/><path d="M527.53 274.54c-5.8.95-20.34 4.04-25.34-11.75M57.69 894.81h855.47" fill="none" stroke="#373435" stroke-linecap="round" stroke-width="1.42"/><path d="M331.08 816.66c-.87 1.79 89.6-.03 90.49-.03.59-.15 54.39-112.41 53.32-112.41-.21 0 14.07 7.84 25.16 14.92 9.25 5.9 14.19 9.62 16.46 23.36 5.32 32.26 11.54 74.43 11.7 74.14h91.89l-11.4-96.39c-4.29-36.29-4.91-42.6-20.63-72.47l-31.25-65.54-144.49-49.38-81.25 283.81Z" fill="#fefefe" fill-rule="evenodd"/><path d="M331.08 816.66c-.87 1.79 89.6-.03 90.49-.03.59-.15 54.39-112.41 53.32-112.41-.21 0 14.07 7.84 25.16 14.92 9.25 5.9 14.19 9.62 16.46 23.36 5.32 32.26 11.54 74.43 11.7 74.14h91.89l-11.4-96.39c-4.29-36.29-4.91-42.6-20.63-72.47l-31.25-65.54-144.49-49.38-81.25 283.81Z" fill="none" stroke="#373435" stroke-linecap="round" stroke-width="1.42"/><path d="M331.08 816.66c-1.47 3.02-26.95 77.59-26.95 77.59s180.58.22 180.57-.28c-.63-44.79-49.64-30.27-63.13-77.35l-90.49.03Z" fill="#d2d3d5" fill-rule="evenodd"/><path d="M331.08 816.66c-1.47 3.02-26.95 77.59-26.95 77.59s180.58.22 180.57-.28c-.63-44.79-49.64-30.27-63.13-77.35l-90.49.03Z" fill="none" stroke="#373435" stroke-linecap="round" stroke-width="1.42"/><path d="M528.21 816.55c-.69 3.02-5.58 77.7-5.58 77.7s180.58.23 180.5-.28c-7.29-46.04-57.42-30.27-83.02-77.35l-91.9-.08Z" fill="#d2d3d5" fill-rule="evenodd"/><path d="M528.21 816.55c-.69 3.02-5.58 77.7-5.58 77.7s180.58.23 180.5-.28c-7.29-46.04-57.42-30.27-83.02-77.35l-91.9-.08Zm-58.55-100.84 28.66-59.95" fill="none" stroke="#373435" stroke-linecap="round" stroke-width="1.42"/><path d="M451.76 326.74c-.77 2.22-37.44 193.07-42.48 217.92-.08.37 154.38 51.77 153.75 49.38-14.25-54.05-40.03-162.75-52.04-228.83-.57-3.14-3.27-17.83-16.1-22.58-8.74-3.24-43.12-15.9-43.12-15.9Z" fill="#373435" fill-rule="evenodd"/><path d="M451.76 326.74c-.77 2.22-37.44 193.07-42.48 217.92-.08.37 154.38 51.77 153.75 49.38-14.25-54.05-40.03-162.75-52.04-228.83-.57-3.14-3.27-17.83-16.1-22.58-8.74-3.24-43.12-15.9-43.12-15.9Z" fill="none" stroke="#373435" stroke-linecap="round" stroke-width="1.42"/><path d="m434.93 553.39 16.83-226.65-132.14 155.93-26.12 28.6 141.43 42.12Z" fill="#373435" fill-rule="evenodd"/><path d="m434.93 553.39 16.83-226.65-132.14 155.93-26.12 28.6 141.43 42.12Z" fill="none" stroke="#373435" stroke-linecap="round" stroke-width="1.42"/><path d="m563.03 594.04-79.1-237.31 21.98-5.03 110.96 219.9-53.84 22.44Z" fill="#373435" fill-rule="evenodd"/><path d="m563.03 594.04-79.1-237.31 21.98-5.03 110.96 219.9-53.84 22.44Z" fill="none" stroke="#373435" stroke-linecap="round" stroke-width="1.42"/><path d="m426.4 482.97 19.66-73.25m74.27 101.77-17.75-92.57" fill="none" stroke="#fefefe" stroke-linecap="round" stroke-width="1.42"/><path d="M141.05 436.58c6.77 2.02 13.97-1.87 15.98-8.65l5.4-18.12c2.02-6.77-1.87-13.96-8.65-15.98-6.77-2.02-13.96 1.87-15.98 8.65l-5.4 18.12c-2.02 6.77 1.87 13.96 8.65 15.98Zm74.28-117.06c45.59 13.58 71.79 61.99 58.21 107.58l-16.52 55.46c-13.58 45.59-61.99 71.79-107.58 58.21-45.59-13.58-71.79-61.99-58.21-107.58l16.52-55.46c13.58-45.59 61.99-71.79 107.58-58.21Z" fill="#d2d3d5" fill-rule="evenodd"/><path d="M141.05 436.58h0c6.77 2.02 13.97-1.87 15.98-8.65l5.4-18.12c2.02-6.77-1.87-13.96-8.65-15.98h0c-6.77-2.02-13.96 1.87-15.98 8.65l-5.4 18.12c-2.02 6.77 1.87 13.96 8.65 15.98Zm74.28-117.06h0c45.59 13.58 71.79 61.99 58.21 107.58l-16.52 55.46c-13.58 45.59-61.99 71.79-107.58 58.21h0c-45.59-13.58-71.79-61.99-58.21-107.58l16.52-55.46c13.58-45.59 61.99-71.79 107.58-58.21Z" fill="none" stroke="#373435" stroke-linecap="round" stroke-width="1.42"/><path d="m272.33 429.98 563.2 170.97c23.64 7.17 12.88 50-12.59 42.26l-563.2-170.97c-29.33-8.91-16.9-51.22 12.59-42.27Z" fill="#d2d3d5" fill-rule="evenodd"/><path d="m272.33 429.98 563.2 170.97c23.64 7.17 12.88 50-12.59 42.26l-563.2-170.97c-29.33-8.91-16.9-51.22 12.59-42.27Z" fill="none" stroke="#373435" stroke-linecap="round" stroke-width="1.42"/><path d="M279.27 456.58c-49.88-24.6-79.4 37.18-32.82 55.57 43.81 17.29 27.35-11.83 37.98-21.49 8.2-7.45 10.98-26.11-5.16-34.08Z" fill="#fefefe" fill-rule="evenodd"/><path d="M279.27 456.58c-49.88-24.6-79.4 37.18-32.82 55.57 43.81 17.29 27.35-11.83 37.98-21.49 8.2-7.45 10.98-26.11-5.16-34.08Z" fill="none" stroke="#373435" stroke-linecap="round" stroke-width="1.42"/><path d="M435 525.27c-12.91 40.78-59.78 40.57-94.08 25.73-9.19-3.98-37.88-15.97-49.43-20.51-48.98-19.27-40.67-73.99-8.22-95.54 15.03-9.98 47.23-8.01 42.82 19.84 0 0 .63-2.32 12.77-7.83 18.04-8.18 44.15 0 38.93 22.74-.43 1.88 17.45-11.94 36.19-1.81 26.61 14.37-1.05 50.48 3.27 52.08 5.2 1.94 17.79 5.19 17.75 5.3Z" fill="#fefefe" fill-rule="evenodd"/><path d="M435 525.27c-12.91 40.78-59.78 40.57-94.08 25.73-9.19-3.98-37.88-15.97-49.43-20.51-48.98-19.27-40.67-73.99-8.22-95.54 15.03-9.98 47.23-8.01 42.82 19.84 0 0 .63-2.32 12.77-7.83 18.04-8.18 44.15 0 38.93 22.74-.43 1.88 17.45-11.94 36.19-1.81 26.61 14.37-1.05 50.48 3.27 52.08 5.2 1.94 17.79 5.19 17.75 5.3Z" fill="none" stroke="#373435" stroke-linecap="round" stroke-width="1.42"/><path d="M330.85 451.28c-7.94 4.36-25.21 17.65-27.25 52.34m77.72-35.34c-19.61 8.39-26.57 36.76-26.57 51.77m62.85-2.56c-2.6 4.65-4.85 12.12-4.68 18.12" fill="none" stroke="#373435" stroke-linecap="round" stroke-width="1.42"/><path d="M696.64 583.39c52.91 7.24 42.23 74.46-4.66 63.91-44.1-9.92-15.08-24.84-18.16-38.67-2.37-10.67 5.7-27.58 22.82-25.24Z" fill="#fefefe" fill-rule="evenodd"/><path d="M696.64 583.39c52.91 7.24 42.23 74.46-4.66 63.91-44.1-9.92-15.08-24.84-18.16-38.67-2.37-10.67 5.7-27.58 22.82-25.24Z" fill="none" stroke="#373435" stroke-linecap="round" stroke-width="1.42"/><path d="M535.19 556.18c-12.25 40.74 24.87 66.43 60.12 73.12 9.45 1.79 38.69 7.73 50.31 10.36 49.27 11.14 72.82-38.55 59.06-74.22-6.37-16.52-32.88-32.66-44.72-7.27 0 0 .78-2.26-5.77-13.5-9.74-16.69-34.85-24.36-43.25-2.73-.69 1.79-7.21-19.47-27.58-21.46-28.91-2.84-26.95 42.19-31.24 41.13-5.17-1.27-16.9-5.54-16.93-5.43Z" fill="#fefefe" fill-rule="evenodd"/><path d="M535.19 556.18c-12.25 40.74 24.87 66.43 60.12 73.12 9.45 1.79 38.69 7.73 50.31 10.36 49.27 11.14 72.82-38.55 59.06-74.22-6.37-16.52-32.88-32.66-44.72-7.27 0 0 .78-2.26-5.77-13.5-9.74-16.69-34.85-24.36-43.25-2.73-.69 1.79-7.21-19.47-27.58-21.46-28.91-2.84-26.95 42.19-31.24 41.13-5.17-1.27-16.9-5.54-16.93-5.43Z" fill="none" stroke="#373435" stroke-linecap="round" stroke-width="1.42"/><path d="M658.12 552.64c3.87 7.97 10.19 28.45-7.29 58.18m-41.91-72c10.87 17.73.75 44.96-7.51 57.34m-48.2-36.8c-.51 5.27-2.84 12.67-6.28 17.51" fill="none" stroke="#373435" stroke-linecap="round" stroke-width="1.42"/></g></svg>