<?xml version="1.0" standalone="no"?><!DOCTYPE svg PUBLIC "-//W3C//DTD SVG 1.1//EN" "http://www.w3.org/Graphics/SVG/1.1/DTD/svg11.dtd"><svg height="1024" node-id="1" sillyvg="true" template-height="1024" template-width="1024" version="1.1" viewBox="0 0 1024 1024" width="1024" xmlns="http://www.w3.org/2000/svg" xmlns:xlink="http://www.w3.org/1999/xlink"><defs node-id="46"><clipPath id="clippath" node-id="5"><path d="M 0.00 0.00 L 1024.00 0.00 L 1024.00 1024.00 L 0.00 1024.00 Z" fill="#000000" fill-rule="nonzero" node-id="49" stroke="none" target-height="1024" target-width="1024" target-x="0" target-y="0"></path></clipPath></defs><g node-id="127"><g clip-path="url(#clippath)" group-id="1" node-id="55"><path d="M 517.96 22.79 L 517.96 22.79 C 723.09 22.79 890.92 190.62 890.92 395.75 L 890.92 1001.00 L 145.00 1001.00 L 145.00 395.76 C 145.00 190.63 312.83 22.80 517.96 22.80 Z" fill="#d2d3d5" fill-rule="evenodd" group-id="1,2" node-id="57" stroke="none" target-height="978.21" target-width="745.92" target-x="145" target-y="22.79"></path><path d="M 517.96 22.79 L 517.96 22.79 C 723.09 22.79 890.92 190.62 890.92 395.75 L 890.92 1001.00 L 145.00 1001.00 L 145.00 395.76 C 145.00 190.63 312.83 22.80 517.96 22.80 Z" fill="none" group-id="1,2" node-id="59" stroke="#373435" stroke-linecap="round" stroke-width="1.42" target-height="978.21" target-width="745.92" target-x="145" target-y="22.79"></path><path d="M 364.79 451.28 L 441.83 522.78 L 321.09 1001.01 L 145.00 1001.01 L 145.00 538.87 L 364.79 451.28 Z" fill="#fefefe" fill-rule="evenodd" group-id="1,2" node-id="61" stroke="none" target-height="549.73" target-width="296.83" target-x="145" target-y="451.28"></path><path d="M 364.79 451.28 L 441.83 522.78 L 321.09 1001.01 L 145.00 1001.01 L 145.00 538.87 L 364.79 451.28 Z" fill="none" group-id="1,2" node-id="63" stroke="#373435" stroke-linecap="round" stroke-width="1.42" target-height="549.73" target-width="296.83" target-x="145" target-y="451.28"></path><path d="M 555.48 298.67 C 555.59 298.74 568.99 302.22 580.14 319.71 C 580.86 320.83 578.07 323.03 577.25 323.92 L 450.29 465.48 L 457.33 503.92 L 441.83 522.78 L 364.79 451.28 L 380.56 434.48 L 423.02 442.96 L 555.47 298.67 Z" fill="#373435" fill-rule="evenodd" group-id="1,2" node-id="65" stroke="none" target-height="224.11002" target-width="216.06998" target-x="364.79" target-y="298.67"></path><path d="M 555.48 298.67 C 555.59 298.74 568.99 302.22 580.14 319.71 C 580.86 320.83 578.07 323.03 577.25 323.92 L 450.29 465.48 L 457.33 503.92 L 441.83 522.78 L 364.79 451.28 L 380.56 434.48 L 423.02 442.96 L 555.47 298.67 Z" fill="none" group-id="1,2" node-id="67" stroke="#373435" stroke-linecap="round" stroke-width="1.42" target-height="224.11002" target-width="216.06998" target-x="364.79" target-y="298.67"></path><path d="M 89.69 1001.01 L 945.16 1001.01" fill="none" group-id="1,2" node-id="69" stroke="#373435" stroke-linecap="round" stroke-width="1.42" target-height="0" target-width="855.47" target-x="89.69" target-y="1001.00995"></path><path d="M 858.31 875.56 C 858.94 877.35 784.14 935.88 783.25 935.88 C 783.08 935.83 740.38 904.20 714.35 884.38 C 675.64 854.89 667.43 829.88 659.86 806.00 C 659.54 804.98 591.15 924.06 590.96 923.60 L 508.91 881.36 L 597.35 622.63 L 739.07 612.95 L 785.57 799.89 L 858.33 875.57 Z" fill="#fefefe" fill-rule="evenodd" group-id="1,2" node-id="71" stroke="none" target-height="322.92993" target-width="350.02994" target-x="508.91" target-y="612.95"></path><path d="M 858.31 875.56 C 858.94 877.35 784.14 935.88 783.25 935.88 C 783.08 935.83 740.38 904.20 714.35 884.38 C 675.64 854.89 667.43 829.88 659.86 806.00 C 659.54 804.98 591.15 924.06 590.96 923.60 L 508.91 881.36 L 597.35 622.63 L 739.07 612.95 L 785.57 799.89 L 858.33 875.57 Z" fill="none" group-id="1,2" node-id="73" stroke="#373435" stroke-linecap="round" stroke-width="1.42" target-height="322.92993" target-width="350.02994" target-x="508.91" target-y="612.95"></path><path d="M 838.89 855.80 C 841.96 857.62 913.32 925.50 913.32 925.50 C 913.32 925.50 833.61 993.93 824.35 1000.07 C 824.35 1000.07 751.70 1000.72 751.70 1000.50 C 751.57 971.90 777.94 963.29 782.59 960.43 C 782.59 960.43 774.54 938.19 770.70 925.84 L 838.89 855.80 Z" fill="#d2d3d5" fill-rule="evenodd" group-id="1,2" node-id="75" stroke="none" target-height="144.91998" target-width="161.74994" target-x="751.57007" target-y="855.8"></path><path d="M 838.89 855.80 C 841.96 857.62 913.32 925.50 913.32 925.50 C 913.32 925.50 833.61 993.93 824.35 1000.07 C 824.35 1000.07 751.70 1000.72 751.70 1000.50 C 751.57 971.90 777.94 963.29 782.59 960.43 C 782.59 960.43 774.54 938.19 770.70 925.84 L 838.89 855.80 Z" fill="none" group-id="1,2" node-id="77" stroke="#373435" stroke-linecap="round" stroke-width="1.42" target-height="144.91998" target-width="161.74994" target-x="751.57007" target-y="855.8"></path><path d="M 593.30 921.25 C 592.37 924.31 555.66 999.39 555.66 999.39 C 555.66 999.39 391.74 914.66 392.07 914.25 C 422.64 876.19 463.26 909.21 511.25 879.01 L 593.30 921.25 Z" fill="#d2d3d5" fill-rule="evenodd" group-id="1,2" node-id="79" stroke="none" target-height="123.20001" target-width="201.55997" target-x="391.74002" target-y="876.19"></path><path d="M 593.30 921.25 C 592.37 924.31 555.66 999.39 555.66 999.39 C 555.66 999.39 391.74 914.66 392.07 914.25 C 422.64 876.19 463.26 909.21 511.25 879.01 L 593.30 921.25 Z" fill="none" group-id="1,2" node-id="81" stroke="#373435" stroke-linecap="round" stroke-width="1.42" target-height="123.20001" target-width="201.55997" target-x="391.74002" target-y="876.19"></path><path d="M 665.39 822.12 L 633.41 729.07" fill="none" group-id="1,2" node-id="83" stroke="#373435" stroke-linecap="round" stroke-width="1.42" target-height="93.04993" target-width="31.980042" target-x="633.41" target-y="729.07"></path><path d="M 782.58 960.43 C 793.82 958.88 795.71 958.86 806.57 958.86" fill="none" group-id="1,2" node-id="85" stroke="#373435" stroke-linecap="round" stroke-width="1.42" target-height="1.5700073" target-width="23.98999" target-x="782.58" target-y="958.86"></path><path d="M 669.94 389.56 L 722.67 389.03 L 724.45 345.24 L 726.37 266.73 C 727.80 242.42 702.52 226.51 681.71 244.47 C 675.65 249.70 659.76 274.07 654.10 282.07 C 642.60 298.34 630.47 316.48 637.20 327.96 C 641.10 334.60 652.64 341.22 673.34 337.02 L 669.94 389.56 Z" fill="#fefefe" fill-rule="evenodd" group-id="1,2" node-id="87" stroke="none" target-height="163.05" target-width="97.33002" target-x="630.47" target-y="226.51"></path><path d="M 669.94 389.56 L 722.67 389.03 L 724.45 345.24 L 726.37 266.73 C 727.80 242.42 702.52 226.51 681.71 244.47 C 675.65 249.70 659.76 274.07 654.10 282.07 C 642.60 298.34 630.47 316.48 637.20 327.96 C 641.10 334.60 652.64 341.22 673.34 337.02 L 669.94 389.56 Z" fill="none" group-id="1,2" node-id="89" stroke="#373435" stroke-linecap="round" stroke-width="1.42" target-height="163.05" target-width="97.33002" target-x="630.47" target-y="226.51"></path><path d="M 663.51 304.05 C 668.73 306.79 681.67 314.39 689.40 299.98" fill="none" group-id="1,2" node-id="91" stroke="#373435" stroke-linecap="round" stroke-width="1.42" target-height="14.410004" target-width="25.890015" target-x="663.51" target-y="299.98"></path><path d="M 726.23 387.06 C 726.73 389.54 739.72 599.81 741.91 626.31 C 741.94 626.69 596.27 627.10 596.27 627.10 C 597.39 623.66 644.63 424.70 650.45 403.97 C 651.27 401.05 655.52 387.37 668.36 387.15 C 677.11 387.00 726.23 387.05 726.23 387.05 Z" fill="#373435" fill-rule="evenodd" group-id="1,2" node-id="93" stroke="none" target-height="240.09998" target-width="145.66998" target-x="596.27" target-y="387"></path><path d="M 726.23 387.06 C 726.73 389.54 739.72 599.81 741.91 626.31 C 741.94 626.69 596.27 627.10 596.27 627.10 C 597.39 623.66 644.63 424.70 650.45 403.97 C 651.27 401.05 655.52 387.37 668.36 387.15 C 677.11 387.00 726.23 387.05 726.23 387.05 Z" fill="none" group-id="1,2" node-id="95" stroke="#373435" stroke-linecap="round" stroke-width="1.42" target-height="240.09998" target-width="145.66998" target-x="596.27" target-y="387"></path><path d="M 478.65 456.73 L 604.77 402.09 C 597.75 385.72 595.28 377.57 599.98 339.94 C 601.51 327.72 603.48 296.98 578.22 294.27 C 575.26 293.95 568.29 295.79 568.29 295.79 C 564.57 287.28 552.40 273.45 537.33 276.94 C 507.95 283.75 516.15 316.81 515.42 316.72 C 488.48 303.86 470.70 334.72 481.70 359.20 C 464.93 355.82 445.89 371.93 457.94 415.13 C 460.22 423.31 478.65 456.74 478.65 456.74 Z" fill="#fefefe" fill-rule="evenodd" group-id="1,2" node-id="97" stroke="none" target-height="183.28998" target-width="158.88" target-x="445.89" target-y="273.45"></path><path d="M 478.65 456.73 L 604.77 402.09 C 597.75 385.72 595.28 377.57 599.98 339.94 C 601.51 327.72 603.48 296.98 578.22 294.27 C 575.26 293.95 568.29 295.79 568.29 295.79 C 564.57 287.28 552.40 273.45 537.33 276.94 C 507.95 283.75 516.15 316.81 515.42 316.72 C 488.48 303.86 470.70 334.72 481.70 359.20 C 464.93 355.82 445.89 371.93 457.94 415.13 C 460.22 423.31 478.65 456.74 478.65 456.74 Z" fill="none" group-id="1,2" node-id="99" stroke="#373435" stroke-linecap="round" stroke-width="1.42" target-height="183.28998" target-width="158.88" target-x="445.89" target-y="273.45"></path><path d="M 890.10 571.88 L 772.73 614.09 C 776.54 628.19 768.94 637.88 766.03 663.15 C 762.10 697.21 785.98 713.75 802.91 706.85 C 811.91 703.18 812.86 704.31 816.87 713.12 C 827.90 737.34 863.59 729.76 858.74 700.14 C 856.78 688.20 858.88 689.83 862.06 697.79 C 872.74 724.50 917.75 712.34 903.87 677.73 C 891.10 645.91 897.11 669.25 907.19 678.06 C 924.88 693.53 956.05 670.50 935.00 639.32 C 931.10 633.54 890.10 571.87 890.10 571.87 Z" fill="#fefefe" fill-rule="evenodd" group-id="1,2" node-id="101" stroke="none" target-height="165.47003" target-width="193.95001" target-x="762.1" target-y="571.87"></path><path d="M 890.10 571.88 L 772.73 614.09 C 776.54 628.19 768.94 637.88 766.03 663.15 C 762.10 697.21 785.98 713.75 802.91 706.85 C 811.91 703.18 812.86 704.31 816.87 713.12 C 827.90 737.34 863.59 729.76 858.74 700.14 C 856.78 688.20 858.88 689.83 862.06 697.79 C 872.74 724.50 917.75 712.34 903.87 677.73 C 891.10 645.91 897.11 669.25 907.19 678.06 C 924.88 693.53 956.05 670.50 935.00 639.32 C 931.10 633.54 890.10 571.87 890.10 571.87 Z" fill="none" group-id="1,2" node-id="103" stroke="#373435" stroke-linecap="round" stroke-width="1.42" target-height="165.47003" target-width="193.95001" target-x="762.1" target-y="571.87"></path><path d="M 807.84 679.02 C 803.80 645.50 838.39 636.34 849.79 665.28 C 852.58 672.37 856.59 683.37 857.68 690.93" fill="none" group-id="1,2" node-id="105" stroke="#373435" stroke-linecap="round" stroke-width="1.42" target-height="54.589966" target-width="53.879883" target-x="803.80005" target-y="636.34"></path><path d="M 843.69 655.29 C 841.02 636.75 874.02 620.56 888.29 647.22 C 888.73 648.04 900.38 668.82 900.38 668.82" fill="none" group-id="1,2" node-id="107" stroke="#373435" stroke-linecap="round" stroke-width="1.42" target-height="48.26001" target-width="59.359985" target-x="841.02" target-y="620.56"></path><path d="M 885.39 642.70 C 880.94 624.93 901.63 609.24 918.30 619.19 C 922.19 621.51 929.23 631.18 932.41 635.23" fill="none" group-id="1,2" node-id="109" stroke="#373435" stroke-linecap="round" stroke-width="1.42" target-height="33.460022" target-width="51.46997" target-x="880.94" target-y="609.24"></path><path d="M 709.84 426.25 L 708.71 398.84 L 639.55 478.10 L 605.45 402.58 L 477.57 455.11 C 477.72 455.05 554.34 586.61 565.27 599.33 C 576.02 611.84 609.73 620.53 627.29 586.37 C 643.61 554.64 678.72 499.49 693.58 469.39 C 705.91 444.42 708.29 429.28 709.83 426.25 Z" fill="#373435" fill-rule="evenodd" group-id="1,2" node-id="111" stroke="none" target-height="221.69" target-width="232.26996" target-x="477.57" target-y="398.84003"></path><path d="M 709.84 426.25 L 708.71 398.84 L 639.55 478.10 L 605.45 402.58 L 477.57 455.11 C 477.72 455.05 554.34 586.61 565.27 599.33 C 576.02 611.84 609.73 620.53 627.29 586.37 C 643.61 554.64 678.72 499.49 693.58 469.39 C 705.91 444.42 708.29 429.28 709.83 426.25 Z" fill="none" group-id="1,2" node-id="113" stroke="#373435" stroke-linecap="round" stroke-width="1.42" target-height="221.69" target-width="232.26996" target-x="477.57" target-y="398.84003"></path><path d="M 584.68 615.57 C 598.74 618.21 616.08 613.63 627.09 592.22 C 643.41 560.48 678.52 505.34 693.38 475.24" fill="none" group-id="1,2" node-id="115" stroke="#d2d3d5" stroke-linecap="round" stroke-width="1.42" target-height="142.97003" target-width="108.69995" target-x="584.68" target-y="475.24"></path><path d="M 725.05 387.06 L 799.59 449.96 C 826.89 470.99 827.54 472.09 845.84 501.28 L 890.09 571.88 L 773.30 618.14 L 755.79 514.28 L 722.30 422.51 L 725.05 387.05 Z" fill="#373435" fill-rule="evenodd" group-id="1,2" node-id="117" stroke="none" target-height="231.09" target-width="167.78998" target-x="722.30005" target-y="387.05002"></path><path d="M 725.05 387.06 L 799.59 449.96 C 826.89 470.99 827.54 472.09 845.84 501.28 L 890.09 571.88 L 773.30 618.14 L 755.79 514.28 L 722.30 422.51 L 725.05 387.05 Z" fill="none" group-id="1,2" node-id="119" stroke="#373435" stroke-linecap="round" stroke-width="1.42" target-height="231.09" target-width="167.78998" target-x="722.30005" target-y="387.05002"></path><path d="M 566.51 292.44 L 582.26 324.35" fill="none" group-id="1,2" node-id="121" stroke="#373435" stroke-linecap="round" stroke-width="1.42" target-height="31.910004" target-width="15.75" target-x="566.51" target-y="292.44"></path><path d="M 578.35 315.19 L 601.28 286.63 L 574.23 266.42 L 561.64 281.50 L 578.35 315.19 Z" fill="#373435" fill-rule="evenodd" group-id="1,2" node-id="123" stroke="none" target-height="48.76999" target-width="39.640015" target-x="561.64" target-y="266.42"></path><path d="M 578.35 315.19 L 601.28 286.63 L 574.23 266.42 L 561.64 281.50 L 578.35 315.19 Z" fill="none" group-id="1,2" node-id="125" stroke="#373435" stroke-linecap="round" stroke-width="1.42" target-height="48.76999" target-width="39.640015" target-x="561.64" target-y="266.42"></path></g></g></svg>