<?xml version="1.0" standalone="no"?><!DOCTYPE svg PUBLIC "-//W3C//DTD SVG 1.1//EN" "http://www.w3.org/Graphics/SVG/1.1/DTD/svg11.dtd"><svg height="1024" node-id="1" sillyvg="true" template-height="1024" template-width="1024" version="1.1" viewBox="0 0 1024 1024" width="1024" xmlns="http://www.w3.org/2000/svg" xmlns:xlink="http://www.w3.org/1999/xlink"><defs node-id="56"><clipPath id="clippath" node-id="5"><path d="M 0.00 0.00 L 1024.00 0.00 L 1024.00 1024.00 L 0.00 1024.00 Z" fill="#000000" fill-rule="nonzero" node-id="59" stroke="none" target-height="1024" target-width="1024" target-x="0" target-y="0"></path></clipPath></defs><g node-id="157"><g clip-path="url(#clippath)" group-id="1" node-id="65"><path d="M 817.81 559.19 C 839.79 559.19 857.61 587.31 857.61 622.00 C 857.61 656.69 839.79 684.81 817.81 684.81 C 795.83 684.81 778.01 656.69 778.01 622.00 C 778.01 587.31 795.83 559.19 817.81 559.19 Z" fill="#373435" fill-rule="evenodd" group-id="1,2" node-id="67" stroke="none" target-height="125.619995" target-width="79.599915" target-x="778.0101" target-y="559.19"></path><path d="M 817.81 559.19 C 839.79 559.19 857.61 587.31 857.61 622.00 C 857.61 656.69 839.79 684.81 817.81 684.81 C 795.83 684.81 778.01 656.69 778.01 622.00 C 778.01 587.31 795.83 559.19 817.81 559.19 Z" fill="none" group-id="1,2" node-id="69" stroke="#373435" stroke-linecap="round" stroke-width="1.42" target-height="125.619995" target-width="79.599915" target-x="778.0101" target-y="559.19"></path><path d="M 830.24 672.37 L 807.23 671.75 L 789.20 779.95 L 852.63 779.95 L 830.24 672.37 Z" fill="#373435" fill-rule="evenodd" group-id="1,2" node-id="71" stroke="none" target-height="108.20001" target-width="63.429993" target-x="789.2" target-y="671.75"></path><path d="M 830.24 672.37 L 807.23 671.75 L 789.20 779.95 L 852.63 779.95 L 830.24 672.37 Z" fill="none" group-id="1,2" node-id="73" stroke="#373435" stroke-linecap="round" stroke-width="1.42" target-height="108.20001" target-width="63.429993" target-x="789.2" target-y="671.75"></path><path d="M 334.83 240.10 L 600.26 125.42 C 666.33 96.88 743.74 127.58 772.28 193.64 L 772.28 193.64 C 800.82 259.71 770.12 337.12 704.06 365.66 L 438.63 480.34 C 372.56 508.88 295.16 478.19 266.61 412.12 L 266.61 412.12 C 238.07 346.05 268.77 268.64 334.83 240.10 Z" fill="#d2d3d5" fill-rule="evenodd" group-id="1,2" node-id="75" stroke="none" target-height="412" target-width="562.75" target-x="238.07" target-y="96.88"></path><path d="M 334.83 240.10 L 600.26 125.42 C 666.33 96.88 743.74 127.58 772.28 193.64 L 772.28 193.64 C 800.82 259.71 770.12 337.12 704.06 365.66 L 438.63 480.34 C 372.56 508.88 295.16 478.19 266.61 412.12 L 266.61 412.12 C 238.07 346.05 268.77 268.64 334.83 240.10 Z" fill="none" group-id="1,2" node-id="77" stroke="#373435" stroke-linecap="round" stroke-width="1.42" target-height="412" target-width="562.75" target-x="238.07" target-y="96.88"></path><path d="M 378.32 359.97 L 653.87 240.98 L 561.24 204.22" fill="none" group-id="1,2" node-id="79" stroke="#373435" stroke-linecap="round" stroke-width="1.42" target-height="155.75" target-width="275.55" target-x="378.32" target-y="204.22"></path><path d="M 653.87 240.98 L 617.64 332.29" fill="none" group-id="1,2" node-id="81" stroke="#373435" stroke-linecap="round" stroke-width="1.42" target-height="91.31001" target-width="36.22998" target-x="617.64" target-y="240.98"></path><path d="M 504.84 350.17 L 452.67 327.07 L 471.36 220.43 C 474.65 197.35 503.25 190.30 520.76 213.43 C 525.86 220.16 537.16 247.76 541.31 256.95 C 549.74 275.64 556.11 293.93 547.09 302.55 C 541.86 307.54 531.28 312.51 511.21 302.23 L 504.85 350.17 Z" fill="#fefefe" fill-rule="evenodd" group-id="1,2" node-id="83" stroke="none" target-height="159.87004" target-width="103.43997" target-x="452.67" target-y="190.3"></path><path d="M 504.84 350.17 L 452.67 327.07 L 471.36 220.43 C 474.65 197.35 503.25 190.30 520.76 213.43 C 525.86 220.16 537.16 247.76 541.31 256.95 C 549.74 275.64 556.11 293.93 547.09 302.55 C 541.86 307.54 531.28 312.51 511.21 302.23 L 504.85 350.17 Z" fill="none" group-id="1,2" node-id="85" stroke="#373435" stroke-linecap="round" stroke-width="1.42" target-height="159.87004" target-width="103.43997" target-x="452.67" target-y="190.3"></path><path d="M 527.53 274.54 C 521.73 275.49 507.19 278.58 502.19 262.79" fill="none" group-id="1,2" node-id="87" stroke="#373435" stroke-linecap="round" stroke-width="1.42" target-height="15.789978" target-width="25.340027" target-x="502.19" target-y="262.79"></path><path d="M 57.69 894.81 L 913.16 894.81" fill="none" group-id="1,2" node-id="89" stroke="#373435" stroke-linecap="round" stroke-width="1.42" target-height="0" target-width="855.47" target-x="57.69" target-y="894.81006"></path><path d="M 331.08 816.66 C 330.21 818.45 420.68 816.63 421.57 816.63 C 422.16 816.48 475.96 704.22 474.89 704.22 C 474.68 704.22 488.96 712.06 500.05 719.14 C 509.30 725.04 514.24 728.76 516.51 742.50 C 521.83 774.76 528.05 816.93 528.21 816.64 L 620.10 816.64 C 616.30 784.51 612.50 752.38 608.70 720.25 C 604.41 683.96 603.79 677.65 588.07 647.78 L 556.82 582.24 L 412.33 532.86 L 331.08 816.67 Z" fill="#fefefe" fill-rule="evenodd" group-id="1,2" node-id="91" stroke="none" target-height="285.59003" target-width="289.88998" target-x="330.21" target-y="532.86"></path><path d="M 331.08 816.66 C 330.21 818.45 420.68 816.63 421.57 816.63 C 422.16 816.48 475.96 704.22 474.89 704.22 C 474.68 704.22 488.96 712.06 500.05 719.14 C 509.30 725.04 514.24 728.76 516.51 742.50 C 521.83 774.76 528.05 816.93 528.21 816.64 L 620.10 816.64 C 616.30 784.51 612.50 752.38 608.70 720.25 C 604.41 683.96 603.79 677.65 588.07 647.78 L 556.82 582.24 L 412.33 532.86 L 331.08 816.67 Z" fill="none" group-id="1,2" node-id="93" stroke="#373435" stroke-linecap="round" stroke-width="1.42" target-height="285.59003" target-width="289.88998" target-x="330.21" target-y="532.86"></path><path d="M 331.08 816.66 C 329.61 819.68 304.13 894.25 304.13 894.25 C 304.13 894.25 484.71 894.47 484.70 893.97 C 484.07 849.18 435.06 863.70 421.57 816.62 L 331.08 816.65 Z" fill="#d2d3d5" fill-rule="evenodd" group-id="1,2" node-id="95" stroke="none" target-height="77.849976" target-width="180.57999" target-x="304.13" target-y="816.62"></path><path d="M 331.08 816.66 C 329.61 819.68 304.13 894.25 304.13 894.25 C 304.13 894.25 484.71 894.47 484.70 893.97 C 484.07 849.18 435.06 863.70 421.57 816.62 L 331.08 816.65 Z" fill="none" group-id="1,2" node-id="97" stroke="#373435" stroke-linecap="round" stroke-width="1.42" target-height="77.849976" target-width="180.57999" target-x="304.13" target-y="816.62"></path><path d="M 528.21 816.55 C 527.52 819.57 522.63 894.25 522.63 894.25 C 522.63 894.25 703.21 894.48 703.13 893.97 C 695.84 847.93 645.71 863.70 620.11 816.62 L 528.21 816.54 Z" fill="#d2d3d5" fill-rule="evenodd" group-id="1,2" node-id="99" stroke="none" target-height="77.94" target-width="180.58002" target-x="522.63" target-y="816.54"></path><path d="M 528.21 816.55 C 527.52 819.57 522.63 894.25 522.63 894.25 C 522.63 894.25 703.21 894.48 703.13 893.97 C 695.84 847.93 645.71 863.70 620.11 816.62 L 528.21 816.54 Z" fill="none" group-id="1,2" node-id="101" stroke="#373435" stroke-linecap="round" stroke-width="1.42" target-height="77.94" target-width="180.58002" target-x="522.63" target-y="816.54"></path><path d="M 469.66 715.71 L 498.32 655.76" fill="none" group-id="1,2" node-id="103" stroke="#373435" stroke-linecap="round" stroke-width="1.42" target-height="59.950073" target-width="28.660004" target-x="469.66" target-y="655.76"></path><path d="M 451.76 326.74 C 450.99 328.96 414.32 519.81 409.28 544.66 C 409.20 545.03 563.66 596.43 563.03 594.04 C 548.78 539.99 523.00 431.29 510.99 365.21 C 510.42 362.07 507.72 347.38 494.89 342.63 C 486.15 339.39 451.77 326.73 451.77 326.73 Z" fill="#373435" fill-rule="evenodd" group-id="1,2" node-id="105" stroke="none" target-height="269.69998" target-width="154.45996" target-x="409.2" target-y="326.73"></path><path d="M 451.76 326.74 C 450.99 328.96 414.32 519.81 409.28 544.66 C 409.20 545.03 563.66 596.43 563.03 594.04 C 548.78 539.99 523.00 431.29 510.99 365.21 C 510.42 362.07 507.72 347.38 494.89 342.63 C 486.15 339.39 451.77 326.73 451.77 326.73 Z" fill="none" group-id="1,2" node-id="107" stroke="#373435" stroke-linecap="round" stroke-width="1.42" target-height="269.69998" target-width="154.45996" target-x="409.2" target-y="326.73"></path><path d="M 434.93 553.39 L 451.76 326.74 L 319.62 482.67 L 293.50 511.27 L 434.93 553.39 Z" fill="#373435" fill-rule="evenodd" group-id="1,2" node-id="109" stroke="none" target-height="226.65002" target-width="158.26001" target-x="293.5" target-y="326.74"></path><path d="M 434.93 553.39 L 451.76 326.74 L 319.62 482.67 L 293.50 511.27 L 434.93 553.39 Z" fill="none" group-id="1,2" node-id="111" stroke="#373435" stroke-linecap="round" stroke-width="1.42" target-height="226.65002" target-width="158.26001" target-x="293.5" target-y="326.74"></path><path d="M 563.03 594.04 L 483.93 356.73 L 505.91 351.70 L 616.87 571.60 L 563.03 594.04 Z" fill="#373435" fill-rule="evenodd" group-id="1,2" node-id="113" stroke="none" target-height="242.33997" target-width="132.94" target-x="483.93" target-y="351.7"></path><path d="M 563.03 594.04 L 483.93 356.73 L 505.91 351.70 L 616.87 571.60 L 563.03 594.04 Z" fill="none" group-id="1,2" node-id="115" stroke="#373435" stroke-linecap="round" stroke-width="1.42" target-height="242.33997" target-width="132.94" target-x="483.93" target-y="351.7"></path><path d="M 426.40 482.97 L 446.06 409.72" fill="none" group-id="1,2" node-id="117" stroke="#fefefe" stroke-linecap="round" stroke-width="1.42" target-height="73.25" target-width="19.660004" target-x="426.4" target-y="409.72"></path><path d="M 520.33 511.49 L 502.58 418.92" fill="none" group-id="1,2" node-id="119" stroke="#fefefe" stroke-linecap="round" stroke-width="1.42" target-height="92.57004" target-width="17.75003" target-x="502.58" target-y="418.91998"></path><path d="M 141.05 436.58 L 141.05 436.58 C 147.82 438.60 155.02 434.71 157.03 427.93 L 162.43 409.81 C 164.45 403.04 160.56 395.85 153.78 393.83 L 153.78 393.83 C 147.01 391.81 139.82 395.70 137.80 402.48 L 132.40 420.60 C 130.38 427.37 134.27 434.56 141.05 436.58 Z M 215.33 319.52 L 215.33 319.52 C 260.92 333.10 287.12 381.51 273.54 427.10 L 257.02 482.56 C 243.44 528.15 195.03 554.35 149.44 540.77 L 149.44 540.77 C 103.85 527.19 77.65 478.78 91.23 433.19 L 107.75 377.73 C 121.33 332.14 169.74 305.94 215.33 319.52 Z" fill="#d2d3d5" fill-rule="evenodd" group-id="1,2" node-id="121" stroke="none" target-height="248.40997" target-width="209.47" target-x="77.65" target-y="305.94"></path><path d="M 141.05 436.58 L 141.05 436.58 C 147.82 438.60 155.02 434.71 157.03 427.93 L 162.43 409.81 C 164.45 403.04 160.56 395.85 153.78 393.83 L 153.78 393.83 C 147.01 391.81 139.82 395.70 137.80 402.48 L 132.40 420.60 C 130.38 427.37 134.27 434.56 141.05 436.58 Z M 215.33 319.52 L 215.33 319.52 C 260.92 333.10 287.12 381.51 273.54 427.10 L 257.02 482.56 C 243.44 528.15 195.03 554.35 149.44 540.77 L 149.44 540.77 C 103.85 527.19 77.65 478.78 91.23 433.19 L 107.75 377.73 C 121.33 332.14 169.74 305.94 215.33 319.52 Z" fill="none" group-id="1,2" node-id="123" stroke="#373435" stroke-linecap="round" stroke-width="1.42" target-height="248.40997" target-width="209.47" target-x="77.65" target-y="305.94"></path><path d="M 272.33 429.98 L 835.53 600.95 C 859.17 608.12 848.41 650.95 822.94 643.21 L 259.74 472.24 C 230.41 463.33 242.84 421.02 272.33 429.97 Z" fill="#d2d3d5" fill-rule="evenodd" group-id="1,2" node-id="125" stroke="none" target-height="229.93002" target-width="628.76" target-x="230.40999" target-y="421.02"></path><path d="M 272.33 429.98 L 835.53 600.95 C 859.17 608.12 848.41 650.95 822.94 643.21 L 259.74 472.24 C 230.41 463.33 242.84 421.02 272.33 429.97 Z" fill="none" group-id="1,2" node-id="127" stroke="#373435" stroke-linecap="round" stroke-width="1.42" target-height="229.93002" target-width="628.76" target-x="230.40999" target-y="421.02"></path><path d="M 279.27 456.58 C 229.39 431.98 199.87 493.76 246.45 512.15 C 290.26 529.44 273.80 500.32 284.43 490.66 C 292.63 483.21 295.41 464.55 279.27 456.58 Z" fill="#fefefe" fill-rule="evenodd" group-id="1,2" node-id="129" stroke="none" target-height="97.45999" target-width="95.54001" target-x="199.87" target-y="431.98"></path><path d="M 279.27 456.58 C 229.39 431.98 199.87 493.76 246.45 512.15 C 290.26 529.44 273.80 500.32 284.43 490.66 C 292.63 483.21 295.41 464.55 279.27 456.58 Z" fill="none" group-id="1,2" node-id="131" stroke="#373435" stroke-linecap="round" stroke-width="1.42" target-height="97.45999" target-width="95.54001" target-x="199.87" target-y="431.98"></path><path d="M 435.00 525.27 C 422.09 566.05 375.22 565.84 340.92 551.00 C 331.73 547.02 303.04 535.03 291.49 530.49 C 242.51 511.22 250.82 456.50 283.27 434.95 C 298.30 424.97 330.50 426.94 326.09 454.79 C 326.09 454.79 326.72 452.47 338.86 446.96 C 356.90 438.78 383.01 446.96 377.79 469.70 C 377.36 471.58 395.24 457.76 413.98 467.89 C 440.59 482.26 412.93 518.37 417.25 519.97 C 422.45 521.91 435.04 525.16 435.00 525.27 Z" fill="#fefefe" fill-rule="evenodd" group-id="1,2" node-id="133" stroke="none" target-height="141.07999" target-width="198.08" target-x="242.51" target-y="424.97"></path><path d="M 435.00 525.27 C 422.09 566.05 375.22 565.84 340.92 551.00 C 331.73 547.02 303.04 535.03 291.49 530.49 C 242.51 511.22 250.82 456.50 283.27 434.95 C 298.30 424.97 330.50 426.94 326.09 454.79 C 326.09 454.79 326.72 452.47 338.86 446.96 C 356.90 438.78 383.01 446.96 377.79 469.70 C 377.36 471.58 395.24 457.76 413.98 467.89 C 440.59 482.26 412.93 518.37 417.25 519.97 C 422.45 521.91 435.04 525.16 435.00 525.27 Z" fill="none" group-id="1,2" node-id="135" stroke="#373435" stroke-linecap="round" stroke-width="1.42" target-height="141.07999" target-width="198.08" target-x="242.51" target-y="424.97"></path><path d="M 330.85 451.28 C 322.91 455.64 305.64 468.93 303.60 503.62" fill="none" group-id="1,2" node-id="137" stroke="#373435" stroke-linecap="round" stroke-width="1.42" target-height="52.339996" target-width="27.25" target-x="303.6" target-y="451.28"></path><path d="M 381.32 468.28 C 361.71 476.67 354.75 505.04 354.75 520.05" fill="none" group-id="1,2" node-id="139" stroke="#373435" stroke-linecap="round" stroke-width="1.42" target-height="51.76999" target-width="26.569977" target-x="354.75" target-y="468.28"></path><path d="M 417.60 517.49 C 415.00 522.14 412.75 529.61 412.92 535.61" fill="none" group-id="1,2" node-id="141" stroke="#373435" stroke-linecap="round" stroke-width="1.42" target-height="18.119995" target-width="4.850006" target-x="412.75" target-y="517.49"></path><path d="M 696.64 583.39 C 749.55 590.63 738.87 657.85 691.98 647.30 C 647.88 637.38 676.90 622.46 673.82 608.63 C 671.45 597.96 679.52 581.05 696.64 583.39 Z" fill="#fefefe" fill-rule="evenodd" group-id="1,2" node-id="143" stroke="none" target-height="76.79999" target-width="101.66998" target-x="647.88" target-y="581.05"></path><path d="M 696.64 583.39 C 749.55 590.63 738.87 657.85 691.98 647.30 C 647.88 637.38 676.90 622.46 673.82 608.63 C 671.45 597.96 679.52 581.05 696.64 583.39 Z" fill="none" group-id="1,2" node-id="145" stroke="#373435" stroke-linecap="round" stroke-width="1.42" target-height="76.79999" target-width="101.66998" target-x="647.88" target-y="581.05"></path><path d="M 535.19 556.18 C 522.94 596.92 560.06 622.61 595.31 629.30 C 604.76 631.09 634.00 637.03 645.62 639.66 C 694.89 650.80 718.44 601.11 704.68 565.44 C 698.31 548.92 671.80 532.78 659.96 558.17 C 659.96 558.17 660.74 555.91 654.19 544.67 C 644.45 527.98 619.34 520.31 610.94 541.94 C 610.25 543.73 603.73 522.47 583.36 520.48 C 554.45 517.64 556.41 562.67 552.12 561.61 C 546.95 560.34 535.22 556.07 535.19 556.18 Z" fill="#fefefe" fill-rule="evenodd" group-id="1,2" node-id="147" stroke="none" target-height="133.15997" target-width="195.50006" target-x="522.94" target-y="517.64"></path><path d="M 535.19 556.18 C 522.94 596.92 560.06 622.61 595.31 629.30 C 604.76 631.09 634.00 637.03 645.62 639.66 C 694.89 650.80 718.44 601.11 704.68 565.44 C 698.31 548.92 671.80 532.78 659.96 558.17 C 659.96 558.17 660.74 555.91 654.19 544.67 C 644.45 527.98 619.34 520.31 610.94 541.94 C 610.25 543.73 603.73 522.47 583.36 520.48 C 554.45 517.64 556.41 562.67 552.12 561.61 C 546.95 560.34 535.22 556.07 535.19 556.18 Z" fill="none" group-id="1,2" node-id="149" stroke="#373435" stroke-linecap="round" stroke-width="1.42" target-height="133.15997" target-width="195.50006" target-x="522.94" target-y="517.64"></path><path d="M 658.12 552.64 C 661.99 560.61 668.31 581.09 650.83 610.82" fill="none" group-id="1,2" node-id="151" stroke="#373435" stroke-linecap="round" stroke-width="1.42" target-height="58.179993" target-width="17.47998" target-x="650.83" target-y="552.64"></path><path d="M 608.92 538.82 C 619.79 556.55 609.67 583.78 601.41 596.16" fill="none" group-id="1,2" node-id="153" stroke="#373435" stroke-linecap="round" stroke-width="1.42" target-height="57.339966" target-width="18.380005" target-x="601.41" target-y="538.82"></path><path d="M 553.21 559.36 C 552.70 564.63 550.37 572.03 546.93 576.87" fill="none" group-id="1,2" node-id="155" stroke="#373435" stroke-linecap="round" stroke-width="1.42" target-height="17.51001" target-width="6.2800293" target-x="546.93" target-y="559.36"></path></g></g></svg>