<?xml version="1.0" encoding="UTF-8"?><svg xmlns="http://www.w3.org/2000/svg" viewBox="0 0 693.41 220.13"><g id="_图层_2"><path id="_1" d="M104.26,83.49L50.54,30.12c-4.66-4.63-1.38-12.58,5.18-12.58h115.13c6.57,0,9.84,7.95,5.18,12.58l-53.72,53.37c-4.99,4.96-13.06,4.96-18.05,0Z" style="fill:#000; stroke-width:0px;"/><path id="_2" d="M0,183.01l.03-51.42c-.02-6.57,7.92-9.87,12.56-5.23l57.02,57.02c4.64,4.64,1.34,12.41-5.23,12.39H12.96C5.92,195.75.02,190.05,0,183.01Z" style="fill:#000; stroke-width:0px;"/><path d="M12.66,19.72l162.19,162.13c4.63,4.63,2.56,13.93-3.99,13.93h-49.23c-9.4,0-18.41-6.33-25.06-12.97L12.97,99.2C6.32,92.55,0,83.54,0,74.14V24.92c0-6.55,8.03-9.83,12.66-5.2Z" style="fill:#000; stroke-width:0px;"/></g><g id="text"><g style="opacity:.7;"><path d="M254.58,39.13l19.53,27.2h-11.75l-14.32-20.22-6.28,6.72v13.5h-9.11V20.35h9.11v21.42l19.09-21.42h11.37l-17.65,18.78Z" style="fill:#000; stroke-width:0px;"/><path d="M300.8,20.35l18.59,45.98h-9.67l-4.02-10.49h-17.9l-3.89,10.49h-9.11l18.03-45.98h7.98ZM302.75,48.05l-6.16-16.14-5.97,16.14h12.12Z" style="fill:#000; stroke-width:0px;"/><path d="M362.86,66.32l-10.87-.06-11.18-16.52h-7.03v16.58h-9.11V20.35h15.89c3.6,0,6.76.61,9.48,1.82,2.72,1.21,4.82,2.94,6.28,5.18,1.46,2.24,2.2,4.8,2.2,7.69s-.75,5.51-2.26,7.73c-1.51,2.22-3.62,3.92-6.34,5.09l12.94,18.47ZM333.78,28.07v13.94h5.72c2.68,0,4.91-.58,6.69-1.73,1.78-1.15,2.67-2.9,2.67-5.24s-.88-4.15-2.64-5.28c-1.76-1.13-4-1.7-6.72-1.7h-5.72Z" style="fill:#000; stroke-width:0px;"/><path d="M376.8,66.32h-9.11V20.35h9.11v45.98Z" style="fill:#000; stroke-width:0px;"/><path d="M393.76,20.35l22.3,30.4v-30.4h8.48v45.98h-7.41l-22.36-30.46v30.46h-8.35V20.35h7.35Z" style="fill:#000; stroke-width:0px;"/><path d="M432.95,51v-7.29h23.55v7.29h-23.55Z" style="fill:#000; stroke-width:0px;"/><path d="M480.81,20.35c3.64,0,6.82.63,9.55,1.88,2.72,1.26,4.83,3.03,6.31,5.31,1.49,2.28,2.23,4.95,2.23,8.01s-.74,5.66-2.23,7.95c-1.49,2.28-3.59,4.04-6.31,5.28-2.72,1.24-5.9,1.85-9.55,1.85h-6.72v15.7h-9.11V20.35h15.83ZM479.8,42.9c2.85,0,5.13-.62,6.85-1.85,1.72-1.23,2.58-3.07,2.58-5.5s-.86-4.28-2.58-5.56c-1.72-1.28-4-1.92-6.85-1.92h-5.72v14.82h5.72Z" style="fill:#000; stroke-width:0px;"/><path d="M504.99,20.35h9.11v37.81h20.92v8.17h-30.02V20.35Z" style="fill:#000; stroke-width:0px;"/><path d="M568.17,20.35h9.11v27.38c0,3.94-.78,7.36-2.32,10.27-1.55,2.91-3.79,5.15-6.72,6.72-2.93,1.57-6.41,2.36-10.43,2.36s-7.56-.79-10.49-2.36c-2.93-1.57-5.17-3.81-6.72-6.72-1.55-2.91-2.32-6.33-2.32-10.27v-27.38h9.11v25.19c0,4.44.91,7.75,2.73,9.92,1.82,2.18,4.39,3.27,7.69,3.27s5.81-1.09,7.63-3.27c1.82-2.18,2.73-5.48,2.73-9.92v-25.19Z" style="fill:#000; stroke-width:0px;"/><path d="M606.74,48.68v-7.85h17.59v18.72c-1.42,2.3-3.7,4.14-6.81,5.5-3.12,1.36-6.56,2.04-10.33,2.04-4.48,0-8.46-1.01-11.93-3.02s-6.18-4.81-8.1-8.42c-1.93-3.6-2.89-7.73-2.89-12.37s.99-8.83,2.98-12.44c1.99-3.6,4.72-6.38,8.2-8.35,3.48-1.97,7.33-2.95,11.56-2.95s7.9.95,11.02,2.86c3.12,1.91,5.22,4.34,6.31,7.32l-7.54,4.33c-.92-1.93-2.24-3.44-3.96-4.55-1.72-1.11-3.75-1.66-6.09-1.66-2.47,0-4.69.63-6.66,1.88-1.97,1.26-3.52,3.06-4.65,5.4-1.13,2.35-1.7,5.07-1.7,8.17s.58,5.95,1.73,8.29c1.15,2.35,2.78,4.15,4.9,5.4,2.11,1.26,4.57,1.88,7.38,1.88,3.27,0,5.82-.9,7.66-2.7v-7.47h-8.67Z" style="fill:#000; stroke-width:0px;"/><path d="M640.9,66.32h-9.11V20.35h9.11v45.98Z" style="fill:#000; stroke-width:0px;"/><path d="M657.86,20.35l22.3,30.4v-30.4h8.48v45.98h-7.41l-22.36-30.46v30.46h-8.35V20.35h7.35Z" style="fill:#000; stroke-width:0px;"/></g><path d="M265.32,160.29l21.49,31.98h-17.17l-13.98-21.18-8.02,8.84v12.34h-14.29v-78.25h14.29v48.53l20.26-23.55h16.55l-19.12,21.28Z" style="fill:#000; stroke-width:0px;"/><path d="M325.06,160.29l21.49,31.98h-17.17l-13.98-21.18-8.02,8.84v12.34h-14.29v-78.25h14.29v48.53l20.26-23.55h16.55l-19.12,21.28Z" style="fill:#000; stroke-width:0px;"/><path d="M384.8,160.29l21.49,31.98h-17.17l-13.98-21.18-8.02,8.84v12.34h-14.29v-78.25h14.29v48.53l20.26-23.55h16.55l-19.12,21.28Z" style="fill:#000; stroke-width:0px;"/></g></svg>