<?xml version="1.0" encoding="UTF-8"?><svg id="_图层_2" xmlns="http://www.w3.org/2000/svg" viewBox="0 0 230 221"><path id="_1" d="M132.75,87.37l-53.72-53.37c-4.66-4.63-1.38-12.58,5.18-12.58h115.13c6.57,0,9.84,7.95,5.18,12.58l-53.72,53.37c-4.99,4.96-13.06,4.96-18.05,0Z" style="fill:#000; stroke-width:0px;"/><path id="_2" d="M28.49,186.89l.03-51.42c-.02-6.57,7.92-9.87,12.56-5.23l57.02,57.02c4.64,4.64,1.34,12.41-5.23,12.39h-51.42c-7.04-.02-12.94-5.72-12.96-12.76Z" style="fill:#000; stroke-width:0px;"/><path d="M41.04,28.97l158.12,158.13c4.63,4.63,1.35,12.55-5.2,12.55h-46.43c-9.4,0-18.41-3.74-25.06-10.39L38.87,105.66c-6.65-6.65-10.38-15.66-10.38-25.06v-46.43c0-6.55,7.92-9.83,12.55-5.2Z" style="fill:#000; stroke-width:0px;"/></svg>